<svg width="108" height="21" viewBox="0 0 108 21" fill="none" xmlns="http://www.w3.org/2000/svg">
<path d="M18.508 16.5L20.3 20H16.38L14.588 16.5L10.304 8.1L6.02 16.5L4.228 20H0.308L2.1 16.5L10.304 0.399999L18.508 16.5ZM28.1498 16.5L38.4258 16.528V20.028H28.4858C27.5058 20.028 26.5818 19.804 25.7418 19.384C24.5098 18.768 23.5018 17.76 22.9138 16.528C22.4938 15.688 22.2698 14.764 22.2698 13.784V0.427998H25.7698V14.12C25.9378 15.352 26.9178 16.332 28.1498 16.5ZM36.2764 0.427998H55.8484V3.928H47.8124V20.028H44.3124V3.928H36.2764V0.427998ZM62.4509 20H58.9509V0.399999H62.4509V20ZM81.62 3.088L85.12 0.399999V20H81.62V7.512L78.176 10.144L75.32 12.356L72.464 10.144L69.02 7.512V20H65.52V0.399999L69.02 3.088L75.32 7.932L81.62 3.088ZM105.275 16.5L107.067 20H103.147L101.355 16.5L97.0705 8.1L92.7865 16.5L90.9945 20H87.0745L88.8665 16.5L97.0705 0.399999L105.275 16.5Z" fill="white"/>
</svg>
