<svg width="30" height="29" viewBox="0 0 30 29" fill="none" xmlns="http://www.w3.org/2000/svg">
<path d="M13.4876 1.46284C14.3309 0.647172 15.6691 0.647172 16.5124 1.46284C17.1111 2.04194 17.988 2.22832 18.7705 1.94281C19.8726 1.54066 21.0951 2.08496 21.5338 3.17311C21.8452 3.94567 22.5704 4.47258 23.4014 4.53002C24.5719 4.61093 25.4673 5.60541 25.4254 6.7779C25.3957 7.61033 25.8439 8.38666 26.5797 8.77713C27.616 9.3271 28.0295 10.5998 27.5144 11.6539C27.1486 12.4023 27.2423 13.2938 27.7557 13.9498C28.4787 14.8737 28.3389 16.2046 27.4395 16.958C26.801 17.4929 26.524 18.3455 26.7261 19.1535C27.0109 20.2917 26.3418 21.4506 25.2137 21.7731C24.4129 22.0021 23.813 22.6682 23.669 23.4887C23.4662 24.6442 22.3836 25.4308 21.2219 25.2666C20.3971 25.15 19.5782 25.5146 19.113 26.2056C18.4577 27.1787 17.1487 27.457 16.1543 26.8345C15.4482 26.3925 14.5518 26.3925 13.8457 26.8345C12.8513 27.457 11.5423 27.1787 10.887 26.2056C10.4218 25.5146 9.60287 25.15 8.7781 25.2666C7.61641 25.4308 6.53378 24.6442 6.33097 23.4887C6.18698 22.6682 5.58716 22.0021 4.78628 21.7731C3.65823 21.4506 2.98913 20.2917 3.27387 19.1535C3.47602 18.3455 3.19901 17.4929 2.5605 16.958C1.66115 16.2046 1.52127 14.8737 2.24432 13.9498C2.75767 13.2938 2.85137 12.4023 2.48563 11.6539C1.97047 10.5998 2.384 9.3271 3.42035 8.77713C4.15612 8.38666 4.60433 7.61033 4.5746 6.7779C4.53272 5.60541 5.42816 4.61093 6.5986 4.53002C7.42958 4.47258 8.1548 3.94567 8.46622 3.17311C8.90486 2.08496 10.1274 1.54066 11.2295 1.94281C12.012 2.22832 12.8889 2.04194 13.4876 1.46284Z" fill="#22266A"/>
<path d="M9.30497 13.9585L12.263 17.4754C12.737 18.039 13.5781 18.1116 14.1417 17.6376L22.364 10.7218" stroke="#EEC202" stroke-width="2"/>
</svg>
